<?xml version="1.0" standalone="no"?><!DOCTYPE svg PUBLIC "-//W3C//DTD SVG 1.1//EN" "http://www.w3.org/Graphics/SVG/1.1/DTD/svg11.dtd"><svg class="icon" width="200px" height="117.84px" viewBox="0 0 1738 1024" version="1.1" xmlns="http://www.w3.org/2000/svg"><path d="M710.736842 511.717053H322.425263a63.002947 63.002947 0 0 1-63.002947-63.002948v-227.570526a63.002947 63.002947 0 0 1 63.002947-63.002947h304.316632c81.057684 0 146.997895 65.940211 146.997894 146.997894v143.575579a63.002947 63.002947 0 0 1-62.989473 63.002948z" fill="#E87E04" /><path d="M1415.68 832.229053H322.425263a63.002947 63.002947 0 0 1-63.002947-62.989474v-320.538947a63.002947 63.002947 0 0 1 63.002947-62.989474h1093.254737a63.002947 63.002947 0 0 1 63.002947 63.002947v320.525474a63.002947 63.002947 0 0 1-63.002947 62.989474z" fill="#F2C500" /><path d="M1415.68 385.711158H869.052632v446.517895h546.627368a63.002947 63.002947 0 0 0 63.002947-62.989474v-320.538947a63.002947 63.002947 0 0 0-63.002947-62.989474z" fill="#F59D00" /><path d="M1415.68 1017.344H322.425263a63.002947 63.002947 0 0 1-63.002947-63.002947V769.239579a63.002947 63.002947 0 0 1 63.002947-63.002947h1093.254737a63.002947 63.002947 0 0 1 63.002947 63.002947V954.341053a63.002947 63.002947 0 0 1-63.002947 63.002947z" fill="#3797D3" /><path d="M1415.68 706.236632H869.052632v311.107368h546.627368a63.002947 63.002947 0 0 0 63.002947-63.002947V769.239579a63.002947 63.002947 0 0 0-63.002947-63.002947z" fill="#4881C2" /><path d="M385.441684 1017.344H69.726316A63.002947 63.002947 0 0 1 6.736842 954.341053V160.404211C6.736842 79.211789 72.555789 13.392842 153.734737 13.392842h84.682105c81.192421 0 147.011368 65.818947 147.011369 146.997895v856.953263z" fill="#48AEE2" /><path d="M1668.365474 1017.344h-315.688421v-631.646316h231.68c81.192421 0 147.011368 65.818947 147.011368 147.011369V954.341053a63.002947 63.002947 0 0 1-63.002947 63.016421z" fill="#39A3DB" /><path d="M1352.677053 385.697684H870.359579v99.031579c0 95.797895 101.914947 156.294737 184.050526 108.247579 80.680421 142.645895 298.253474 85.221053 298.253474-81.475368v-125.80379z" fill="#E87E04" /><path d="M1352.677053 706.236632v311.107368h315.688421a63.002947 63.002947 0 0 0 63.002947-63.002947V706.236632h-378.691368z" fill="#4881C2" /><path d="M6.736842 706.236632V954.341053a63.002947 63.002947 0 0 0 63.002947 63.002947h315.688422v-311.107368H6.736842z" fill="#3797D3" /></svg>